<?xml version="1.0" standalone="no"?>
<!DOCTYPE svg PUBLIC "-//W3C//DTD SVG 20010904//EN"
 "http://www.w3.org/TR/2001/REC-SVG-20010904/DTD/svg10.dtd">
<svg version="1.0" xmlns="http://www.w3.org/2000/svg"
 width="16.000000pt" height="16.000000pt" viewBox="0 0 16.000000 16.000000"
 preserveAspectRatio="xMidYMid meet">

<g transform="translate(0.000000,16.000000) scale(0.100000,-0.100000)"
fill="#000000" stroke="none">
<path d="M0 80 l0 -80 80 0 80 0 0 80 0 80 -80 0 -80 0 0 -80z m54 12 c-6 -4
-13 -14 -16 -22 -3 -10 -6 -8 -10 8 -5 18 -2 22 15 22 13 0 17 -3 11 -8z m57
-1 c7 11 9 10 9 -6 0 -15 -7 -20 -25 -20 -18 0 -25 5 -25 19 0 16 2 16 16 5
13 -10 17 -10 25 2z"/>
</g>
</svg>
